HIERARCHY
ROOT Hips
{
  OFFSET -125.086 92.215 135.881
  CHANNELS 6 Xposition Yposition Zposition Zrotation Xrotation Yrotation
  JOINT LeftUpLeg
  {
    OFFSET 8.64259 1.95398 -2.38835
    CHANNELS 3 Zrotation Xrotation Yrotation
    JOINT LeftLeg
    {
      OFFSET 43.7702 0 0
      CHANNELS 3 Zrotation Xrotation Yrotation
      JOINT LeftFoot
      {
        OFFSET 40.6238 0 0
        CHANNELS 3 Zrotation Xrotation Yrotation
        JOINT LeftToeBase
        {
          OFFSET 12.7242 0 0
          CHANNELS 3 Zrotation Xrotation Yrotation
          End Site
          {
            OFFSET 0 0 0
          }
        }
      }
    }
  }
  JOINT RightUpLeg
  {
    OFFSET -8.2249 1.95398 -2.59336
    CHANNELS 3 Zrotation Xrotation Yrotation
    JOINT RightLeg
    {
      OFFSET 43.5653 0 0
      CHANNELS 3 Zrotation Xrotation Yrotation
      JOINT RightFoot
      {
        OFFSET 40.6238 0 0
        CHANNELS 3 Zrotation Xrotation Yrotation
        JOINT RightToeBase
        {
          OFFSET 12.7242 0 0
          CHANNELS 3 Zrotation Xrotation Yrotation
          End Site
          {
            OFFSET 0 0 0
          }
        }
      }
    }
  }
  JOINT Spine
  {
    OFFSET 0.165834 0.87714 6.61349
    CHANNELS 3 Zrotation Xrotation Yrotation
    JOINT Spine1
    {
      OFFSET 7.38963 1.71661e-005 0
      CHANNELS 3 Zrotation Xrotation Yrotation
      JOINT Spine2
      {
        OFFSET 11.9445 1.14441e-005 0
        CHANNELS 3 Zrotation Xrotation Yrotation
        JOINT Spine3
        {
          OFFSET 14.7254 4.19617e-005 0
          CHANNELS 3 Zrotation Xrotation Yrotation
          JOINT Spine4
          {
            OFFSET 10.9679 0 0
            CHANNELS 3 Zrotation Xrotation Yrotation
            JOINT RightShoulder
            {
              OFFSET 2.46616 -1.6653 3.69651
              CHANNELS 3 Zrotation Xrotation Yrotation
              JOINT RightArm
              {
                OFFSET 13.0012 0 0
                CHANNELS 3 Zrotation Xrotation Yrotation
                JOINT RightForeArm
                {
                  OFFSET 28.7848 1.52588e-005 0
                  CHANNELS 3 Zrotation Xrotation Yrotation
                  JOINT RightHand
                  {
                    OFFSET 26.5688 1.52588e-005 0
                    CHANNELS 3 Zrotation Xrotation Yrotation
                    End Site
                    {
                      OFFSET 0 0 0
                    }
                  }
                }
              }
            }
            JOINT LeftShoulder
            {
              OFFSET 2.38034 -1.29275 -3.7523
              CHANNELS 3 Zrotation Xrotation Yrotation
              JOINT LeftArm
              {
                OFFSET 16.3182 6.10352e-005 0
                CHANNELS 3 Zrotation Xrotation Yrotation
                JOINT LeftForeArm
                {
                  OFFSET 27.0901 0 0
                  CHANNELS 3 Zrotation Xrotation Yrotation
                  JOINT LeftHand
                  {
                    OFFSET 24.5451 1.52588e-005 0
                    CHANNELS 3 Zrotation Xrotation Yrotation
                    End Site
                    {
                      OFFSET 0 0 0
                    }
                  }
                }
              }
            }
            JOINT Neck
            {
              OFFSET 5.0226 -0.0266342 0
              CHANNELS 3 Zrotation Xrotation Yrotation
              JOINT Head
              {
                OFFSET 6.69363 2.86102e-005 0
                CHANNELS 3 Zrotation Xrotation Yrotation
                End Site
                {
                  OFFSET 0 0 0
                }
              }
            }
          }
        }
      }
    }
  }
}
MOTION
Frames:	13
Frame Time:	0.0416667
-1.95766 97.0224 -14.3692 135.535 -83.0498 134.949 -174.279 0.229388 91.5523 -12.7033 6.1356 3.01265 63.4455 4.6223 -1.89303 32.0391 -0.566485 3.29311 174.076 -0.237673 86.7664 -16.4596 -2.97396 -0.709891 67.4387 -4.69286 4.21887 31.273 -0.0622559 -4.27917 0.17595 6.02673 -89.869 14.8201 0.413168 0.202887 3.14921 0.421701 0.184487 -19.3862 0.333082 0.317679 0.62646 0.333097 0.317678 104.914 2.94165 -69.8516 8.31055 38.576 -86.5611 20.6235 48.4911 -37.614 -8.33355 0.513064 -13.0949 -76.7712 -14.5465 99.5319 -1.54428 -42.61 -100.798 -5.99122 -45.2254 -23.5889 7.26114 -0.872602 -13.6307 -9.85453 -2.1791 -0.163261 -25.9651 -0.12923 -10.3823 
-1.89601 97.0173 -14.5722 135.2 -82.8621 134.655 -174.333 0.423977 91.5378 -13.0302 6.52675 3.05246 63.4199 4.60769 -1.83442 32.0553 -0.622047 3.92264 174.095 -0.195013 86.7833 -16.5138 -2.73976 -0.711288 67.2219 -4.56624 4.2029 31.6365 -0.155848 -3.96947 0.143092 6.08398 -89.867 14.7056 0.349093 0.216846 3.03469 0.358299 0.201263 -19.5006 0.267774 0.311737 0.512082 0.267789 0.311738 104.894 2.76835 -70.0173 8.48912 37.7646 -86.5196 20.4584 47.5833 -37.4507 -8.52146 0.508913 -12.8485 -76.8294 -14.0334 99.4053 -2.7736 -41.2194 -101.791 -4.52301 -44.4681 -22.2111 6.0268 -0.779406 -13.7283 -9.27953 -2.31148 -0.393922 -26.2575 -0.437712 -9.30086 
-1.83738 97.0241 -14.7564 135.047 -82.6719 134.448 -174.543 0.490145 91.3698 -13.1706 6.39554 3.1662 63.3102 4.55859 -1.83743 32.0458 -0.607161 3.75506 174.113 -0.305473 86.7352 -16.3656 -2.51121 -0.78639 67.2455 -4.5478 4.42702 31.4655 -0.1121 -4.11533 0.132997 6.13826 -89.8398 14.5969 0.342454 0.272747 2.92594 0.354118 0.257412 -19.6092 0.244644 0.363059 0.403464 0.244647 0.363057 104.884 2.01475 -70.3847 8.73519 36.7668 -86.6058 19.8432 46.6619 -36.7914 -6.90146 0.436544 -13.4809 -77.0841 -13.6861 98.7572 -3.21893 -39.6967 -102.402 -4.30942 -44.8457 -21.1992 5.37284 -0.74417 -14.0156 -8.82395 -2.83019 -0.924991 -25.522 -1.0329 -9.08435 
-1.78338 97.0149 -14.947 134.755 -82.5386 134.183 -174.626 0.615347 91.3292 -13.3188 6.07628 3.22033 63.4798 4.58176 -2.14448 31.6232 -0.567428 3.56277 174.113 -0.0467279 86.7318 -16.7653 -2.56896 -0.765769 67.0822 -4.42587 4.19032 31.5613 -0.147484 -3.88876 0.0863985 6.17536 -89.8445 14.5228 0.24784 0.277058 2.85185 0.259797 0.265875 -19.6832 0.153112 0.338732 0.329492 0.153111 0.338731 104.82 1.31463 -70.9386 8.5723 35.0579 -86.668 21.2834 47.0527 -37.5272 -6.2262 0.358491 -12.9714 -77.1687 -13.8735 98.5309 -2.86815 -37.9966 -102.438 -5.63945 -45.8025 -20.96 3.84604 -0.631693 -14.3042 -7.89948 -2.87568 -0.565339 -25.2705 -1.14365 -8.92728 
-1.76366 97.0238 -15.0984 135.607 -82.4243 135.149 -174.453 0.633961 91.4929 -13.4564 6.79847 3.1551 63.3516 4.57526 -1.73367 31.7601 -0.604062 3.88939 174.072 -0.17207 86.8 -16.6284 -2.64404 -0.673568 66.8171 -4.43145 3.95598 31.7995 -0.206948 -3.69469 0.0493199 6.19889 -89.8635 14.4758 0.164972 0.250687 2.80486 0.175838 0.243175 -19.7301 0.0819985 0.288674 0.28252 0.0819957 0.288669 104.563 0.589695 -72.2589 7.55475 32.9072 -85.5195 23.2571 47.0053 -38.4745 -5.81669 0.333435 -13.0306 -77.4295 -14.2706 97.8462 -2.93311 -35.4292 -102.43 -5.50078 -44.5208 -19.4098 1.56536 -0.433603 -14.3249 -7.12854 -2.65713 0.230893 -25.2865 -0.91413 -9.26111 
-1.74548 97.0458 -15.3079 138.996 -82.4246 138.617 -174.335 0.411743 91.5837 -13.4189 6.1471 3.13203 63.3819 4.52563 -2.14917 31.6449 -0.580335 3.69138 174.057 -0.404077 86.8067 -16.5125 -2.83258 -0.704567 67.049 -4.54013 4.24931 30.9639 -0.0373255 -3.83861 0.0557801 6.27222 -89.8659 14.3292 0.176407 0.244346 2.65826 0.186989 0.236339 -19.8768 0.0948117 0.286062 0.135897 0.0948131 0.286062 104.405 -1.02186 -73.3643 5.97639 30.9144 -84.0519 23.7663 44.7798 -38.2794 -4.92662 0.272941 -13.0705 -77.5929 -14.4442 97.4198 -2.3431 -32.9284 -101.605 -6.73024 -42.9042 -18.9918 0.638219 -0.361498 -14.6399 -6.10558 -2.86098 0.308812 -24.2926 -1.19137 -9.36269 
-1.65915 97.0549 -15.5346 140.327 -82.53 140.142 -174.335 0.635823 91.6608 -13.6887 6.25491 3.17881 63.3318 4.53783 -1.81963 31.8764 -0.57564 3.50096 174.113 -0.272069 86.9177 -16.4578 -3.09701 -0.665247 66.6005 -4.39401 4.09534 31.3863 -0.127576 -3.69828 0.0578316 6.30697 -89.9161 14.2598 0.155835 0.14687 2.58884 0.162154 0.139859 -19.9463 0.104482 0.186913 0.0663579 0.104494 0.186911 104.027 -3.15531 -75.3429 3.94641 28.7886 -81.4745 25.7667 42.4686 -39.8983 -4.78081 0.277084 -13.4361 -77.8814 -15.0594 96.6977 -2.86169 -29.13 -100.468 -8.10841 -40.4769 -19.8268 0.55693 -0.335546 -13.9313 -5.18674 -2.80267 0.79082 -23.2397 -1.23975 -9.50755 
-1.56061 97.0784 -15.7189 142.191 -82.8544 142.003 -174.319 0.537289 91.5999 -13.1415 5.90664 3.07955 63.184 4.5126 -1.79638 31.6062 -0.547547 3.35296 174.117 -0.0853179 86.8385 -16.1891 -3.67528 -0.672381 66.1479 -4.27803 3.85564 31.7732 -0.206747 -3.62646 0.0779337 6.30157 -89.9288 14.2706 0.189439 0.11665 2.59968 0.19439 0.108195 -19.9355 0.145622 0.168195 0.0771333 0.145623 0.168188 103.7 -5.79699 -76.8751 2.3891 25.7669 -78.9308 28.8992 39.6567 -43.4286 -5.85263 0.307657 -12.4518 -78.4159 -15.9102 95.3463 -2.84764 -25.1652 -97.6137 -12.1133 -38.5415 -23.531 0.0283586 -0.29529 -14.1242 -5.3381 -2.77418 0.690237 -20.8109 -1.48246 -9.0125 
-1.48488 97.0754 -15.8992 141.902 -82.9644 141.77 -174.384 0.774819 91.5618 -13.1966 5.53044 3.08582 63.3273 4.49881 -2.02672 31.0816 -0.486097 3.01741 174.004 0.110506 86.7434 -16.1595 -3.5607 -0.549269 66.3406 -4.2589 4.06788 31.0391 -0.106735 -3.13948 0.0618234 6.276 -89.964 14.3219 0.140222 0.0527029 2.65099 0.142393 0.0464775 -19.8842 0.117899 0.0924079 0.128446 0.117893 0.0923984 103.641 -7.20442 -77.2953 4.66395 20.6489 -78.3653 29.4066 36.0488 -45.3944 -5.5404 0.282378 -12.2925 -78.5902 -17.5298 94.9795 -3.78867 -20.0366 -95.0277 -16.604 -36.0971 -28.7544 0.196172 -0.298722 -13.6361 -4.73626 -2.35091 1.39628 -20.3913 -1.07765 -9.59513 
-1.3851 97.0411 -16.0844 142.029 -83.1848 141.846 -174.475 1.12974 91.4142 -13.4478 6.03364 3.03083 62.8766 4.19198 -1.57499 31.7954 -0.600582 3.82347 173.973 0.507715 86.6082 -16.3028 -3.93423 -0.529597 66.336 -4.16288 4.25415 30.8234 0.00508749 -4.03073 0.0739654 6.28103 -89.9488 14.3119 0.171691 0.0787858 2.64093 0.174996 0.0711447 -19.8943 0.140074 0.126742 0.118366 0.140079 0.126745 103.599 -10.6933 -77.8503 4.01005 16.7387 -75.834 32.6684 33.4979 -49.7711 -6.60357 0.279085 -10.9252 -78.5706 -19.6028 95.1113 -5.03033 -14.8058 -92.619 -20.1942 -32.6681 -33.6498 -0.0827589 -0.272381 -13.466 -3.43493 -2.3195 -0.326283 -21.4946 -1.02668 -7.99331 
-1.34645 97.016 -16.2126 140.721 -83.2127 140.596 -174.47 1.44043 91.4386 -13.613 6.05287 3.00792 62.9771 4.13348 -1.61243 31.4884 -0.562153 3.58916 174.027 0.692989 86.6664 -16.3059 -3.79135 -0.52699 66.26 -4.09358 4.27702 31.0368 -0.0471254 -3.89041 0.0668435 6.30388 -89.9888 14.2661 0.137962 0.00334081 2.59514 0.13798 -0.00274275 -19.9401 0.13058 0.0446516 0.0725815 0.130582 0.0446477 103.65 -14.1231 -77.9628 3.654 12.4521 -72.9268 32.4459 28.7971 -52.4387 -6.2779 0.240551 -10.5107 -79.4072 -21.9529 93.2977 -5.29863 -10.1429 -86.988 -26.1661 -30.6056 -40.7741 1.49983 -0.387302 -13.1323 -1.54061 -2.74001 0.261273 -22.776 -1.15209 -9.56894 
-1.29458 97.0221 -16.3068 140.06 -83.283 139.869 -174.526 1.4751 91.3372 -13.3549 5.84206 2.96253 63.0351 4.17532 -1.73393 31.1748 -0.523674 3.35295 174.008 0.878011 86.5885 -16.2762 -3.79037 -0.522644 66.099 -4.11383 3.93191 31.3543 -0.151032 -3.31963 0.0182723 6.33548 -89.9679 14.2028 0.0519871 0.0573203 2.53186 0.0544601 0.0549713 -20.0033 0.0323625 0.0702976 0.00936343 0.0323578 0.0702912 103.766 -19.0841 -78.1298 2.30115 7.73396 -69.6135 34.1855 25.3089 -56.8308 -8.62024 0.279412 -9.50488 -79.4136 -23.6056 93.3816 -7.1903 -4.45102 -82.2754 -27.5312 -25.5513 -45.2391 1.99274 -0.421569 -13.0068 0.778041 -2.87135 -0.0467753 -23.6489 -1.11357 -9.85722 
-1.25253 97.0284 -16.3342 139.145 -83.4401 139.08 -174.495 1.66342 91.4257 -13.263 6.21984 2.96044 62.9821 4.24294 -1.22347 31.0519 -0.481854 2.99144 174.009 1.02247 86.6716 -16.1479 -4.01672 -0.437968 65.9518 -4.08341 3.90889 31.4355 -0.14035 -3.66377 -0.00985116 6.38862 -90.0075 14.0966 -0.0231492 -0.0118674 2.4257 -0.0236441 -0.0108327 -20.1095 -0.018524 -0.0182813 -0.0968094 -0.018505 -0.0182615 104.036 -22.4465 -77.7524 3.92172 2.0391 -66.4383 32.8641 21.3845 -59.4394 -8.64977 0.237791 -8.86849 -79.1095 -26.2618 94.1681 -8.11209 0.927337 -77.7198 -30.1312 -22.3132 -49.4411 5.08042 -0.61149 -12.3558 3.43239 -2.8374 0.622734 -24.3955 -1.14975 -9.68607 
